<?xml version="1.0" encoding="utf-8"?>
<!-- Generator: Adobe Illustrator 20.1.0, SVG Export Plug-In . SVG Version: 6.00 Build 0)  -->
<svg version="1.1" id="Layer_1" xmlns="http://www.w3.org/2000/svg" xmlns:xlink="http://www.w3.org/1999/xlink" x="0px" y="0px"
	 viewBox="0 0 300 230" style="enable-background:new 0 0 300 230;" xml:space="preserve">
<style type="text/css">
	.st0{fill:#EE7D16;}
	.st1{clip-path:url(#SVGID_2_);fill:#E87E04;}
	.st2{fill:#FFFFFF;}
</style>
<rect x="0.1" y="0.3" class="st0" width="299.7" height="229.5"/>
<g>
	<defs>
		<rect id="SVGID_1_" x="1.9" y="0.6" width="297.9" height="230.1"/>
	</defs>
	<clipPath id="SVGID_2_">
		<use xlink:href="#SVGID_1_"  style="overflow:visible;"/>
	</clipPath>
	<path class="st1" d="M187.4,117.1h1.3v-3.7h-1.3V117.1z M191.1,117.6c0-1.2-0.7-2.3-1.7-2.8v1.3c0.4,0.4,0.6,0.9,0.6,1.5
		c0,1.2-0.9,2.1-2,2.1s-2-0.9-2-2.1c0-0.6,0.2-1.1,0.6-1.5v-1.3c-1,0.5-1.7,1.6-1.7,2.8c0,1.8,1.4,3.2,3.1,3.2
		C189.7,120.7,191.1,119.3,191.1,117.6"/>
</g>
<g>
	<polygon class="st2" points="150.8,134.3 55.8,56.3 55.8,184 245.9,184 245.9,56.3 	"/>
	<polygon class="st2" points="55.8,47.3 150.8,125.4 245.9,47.3 	"/>
</g>
</svg>
