<?xml version="1.0" encoding="utf-8"?>
<!-- Generator: Adobe Illustrator 20.1.0, SVG Export Plug-In . SVG Version: 6.00 Build 0)  -->
<svg version="1.1" id="Layer_1" xmlns="http://www.w3.org/2000/svg" xmlns:xlink="http://www.w3.org/1999/xlink" x="0px" y="0px"
	 viewBox="0 0 504 266" style="enable-background:new 0 0 504 266;" xml:space="preserve">
<style type="text/css">
	.st0{fill:#EE7D16;}
	.st1{clip-path:url(#SVGID_2_);fill:#FFFFFF;}
</style>
<rect x="0.1" y="0.5" class="st0" width="503.6" height="265.2"/>
<g>
	<defs>
		<rect id="SVGID_1_" x="0.1" y="0.5" width="503.6" height="264.5"/>
	</defs>
	<clipPath id="SVGID_2_">
		<use xlink:href="#SVGID_1_"  style="overflow:visible;"/>
	</clipPath>
	<path class="st1" d="M108.8,161.7c24.1,0,37.2-19.9,37.2-37.2c0-0.6,0-1.1,0-1.7c2.6-1.8,4.8-4.1,6.5-6.8c-2.3,1-4.9,1.7-7.5,2.1
		c2.7-1.6,4.8-4.2,5.8-7.2c-2.5,1.5-5.3,2.6-8.3,3.2c-2.4-2.5-5.8-4.1-9.5-4.1c-7.2,0-13.1,5.9-13.1,13.1c0,1,0.1,2,0.3,3
		c-10.9-0.5-20.5-5.8-27-13.7c-1.1,1.9-1.8,4.2-1.8,6.6c0,4.5,2.3,8.5,5.8,10.9c-2.1-0.1-4.2-0.7-5.9-1.6c0,0.1,0,0.1,0,0.2
		c0,6.3,4.5,11.6,10.5,12.8c-1.1,0.3-2.3,0.5-3.4,0.5c-0.8,0-1.7-0.1-2.5-0.2c1.7,5.2,6.5,9,12.2,9.1C103.6,154,98,156,91.9,156
		c-1.1,0-2.1-0.1-3.1-0.2C94.5,159.6,101.4,161.7,108.8,161.7 M173,133.1c0,30-24.3,54.2-54.2,54.2s-54.2-24.3-54.2-54.2
		s24.3-54.2,54.2-54.2S173,103.2,173,133.1"/>
	<path class="st1" d="M278.6,85.5c-8.1-4.9-17-7.3-26.6-7.3c-9.6,0-18.5,2.4-26.6,7.3c-8.1,4.9-14.6,11.5-19.3,19.9
		c-4.7,8.4-7.1,17.5-7.1,27.4c0,9.9,2.4,19,7.1,27.4c4.7,8.4,11.2,15,19.3,19.9c8.1,4.9,17,7.3,26.6,7.3c9.6,0,18.5-2.4,26.6-7.3
		c8.1-4.9,14.6-11.5,19.3-19.9c4.7-8.4,7.1-17.5,7.1-27.4c0-9.9-2.4-19-7.1-27.4C293.1,97,286.7,90.4,278.6,85.5 M286.1,144.5h-7.6
		v-7.8h-7.6v-7.8h7.6V121h7.6v7.8h7.5v7.8h-7.5V144.5z M255.2,152.6c-4.7,5-10.8,7.5-18.4,7.5c-7.4,0-13.6-2.7-18.8-8
		c-5.2-5.3-7.7-11.8-7.7-19.3c0-7.5,2.6-14,7.7-19.3c5.2-5.3,11.4-8,18.8-8c6.9,0,12.8,2.4,17.8,7.1l-7.2,7.2
		c-2.8-2.8-6.3-4.2-10.6-4.2c-4.6,0-8.5,1.7-11.7,5.1c-3.2,3.4-4.8,7.4-4.8,12.1c0,4.7,1.6,8.7,4.8,12.1s7.1,5.1,11.7,5.1
		c3.7,0,7-1.1,9.8-3.2c2.9-2.1,4.6-5,5.1-8.6h-15v-9.4h25c0.3,1.5,0.4,3,0.4,4.6C262.2,141.2,259.9,147.6,255.2,152.6"/>
	<path class="st1" d="M413.5,160h-11.7v-18.4c0-4.4-0.1-10-6.1-10c-6.1,0-7,4.8-7,9.7V160h-11.7v-37.8h11.3v5.2h0.2
		c1.6-3,5.4-6.1,11.1-6.1c11.9,0,14.1,7.8,14.1,18V160z M370.4,110.3c0,3.8-3.1,6.8-6.8,6.8c-3.8,0-6.8-3.1-6.8-6.8
		c0-3.8,3-6.8,6.8-6.8C367.4,103.4,370.4,106.5,370.4,110.3 M357.7,122.2h11.8V160h-11.8V122.2z M439.4,133.1
		c0-30-24.3-54.2-54.2-54.2s-54.2,24.3-54.2,54.2s24.3,54.2,54.2,54.2S439.4,163.1,439.4,133.1"/>
</g>
</svg>
