<?xml version="1.0" encoding="utf-8"?>
<!-- Generator: Adobe Illustrator 19.2.1, SVG Export Plug-In . SVG Version: 6.00 Build 0)  -->
<svg version="1.1" id="Layer_1" xmlns="http://www.w3.org/2000/svg" xmlns:xlink="http://www.w3.org/1999/xlink" x="0px" y="0px"
	 viewBox="0 0 300 300" style="enable-background:new 0 0 300 300;" xml:space="preserve">
<style type="text/css">
	.st0{clip-path:url(#SVGID_2_);fill:#00131C;}
</style>
<g>
	<defs>
		<rect id="SVGID_1_" x="19" y="0" width="260.6" height="300"/>
	</defs>
	<clipPath id="SVGID_2_">
		<use xlink:href="#SVGID_1_"  style="overflow:visible;"/>
	</clipPath>
	<path class="st0" d="M121.9,150.3h54.6V0h-54.6V150.3z M279.6,169.7c0-50.8-29.1-94.6-71.5-116.1v54.1
		c15.9,15.6,25.8,37.5,25.8,61.8c0,47.6-37.9,86.1-84.8,86.1c-46.8,0-84.8-38.5-84.8-86.1c0-24.3,9.9-46.1,25.8-61.8v-54
		C48,75.2,19,119,19,169.7c0,72,58.3,130.3,130.3,130.3C221.3,300,279.6,241.7,279.6,169.7"/>
</g>
</svg>
